# xmcd CD database file
#
# Track frame offsets:
#	150
#	5125
#	20030
#	30788
#	43493
#	59405
#	69513
#	82867
#	94788
#	109820
#	125138
#	132798
#	148765
#	177839
#
# Disc length: 3876 seconds
#
# Revision: 4
# Processed by: cddbd v1.5.2PL0 Copyright (c) Steve Scherf et al.
# Submitted via: CDex 1.51
#
DISCID=c30f220e
DTITLE=The Offspring - Sprinter
DYEAR=2003
DGENRE=Punk Rock
TTITLE0=Neocon
TTITLE1=The Noose
TTITLE2=Long Way Home
TTITLE3=Hit That
TTITLE4=Race Against Myself
TTITLE5=(Can't Get My) Head Around You
TTITLE6=The Worst Hangover Ever
TTITLE7=Never Gonna Find Me
TTITLE8=Lighting Rod
TTITLE9=Spare Me The Details
TTITLE10=Da Hui
TTITLE11=When You're In Prison
TTITLE12=Defy You (Acoustic)
TTITLE13=Data
EXTD=YEAR: 2003
EXTT0=
EXTT1=
EXTT2=
EXTT3=
EXTT4=
EXTT5=
EXTT6=
EXTT7=
EXTT8=
EXTT9=
EXTT10=
EXTT11=
EXTT12=
EXTT13=
PLAYORDER=
